<?xml version="1.0" encoding="UTF-8"?>
<svg id="_レイヤー_1" data-name="レイヤー 1" xmlns="http://www.w3.org/2000/svg" viewBox="0 0 1347.8 327.28">
  <defs>
    <style>
      .cls-1 {
        fill: #ff53ba;
      }
    </style>
  </defs>
  <path class="cls-1" d="M66.24,322.47H10.06c-7.92,0-12.72-8.74-8.48-15.42l56.61-89.31c2.08-3.28,2.08-7.47,0-10.76L1.58,117.67c-4.24-6.69.57-15.42,8.48-15.42h56.2c3.68,0,7.07,2.02,8.83,5.25l19.39,35.72c3.8,7,13.86,7,17.66,0l19.39-35.72c1.76-3.24,5.15-5.25,8.83-5.25h56.32c7.89,0,12.7,8.69,8.51,15.38l-55.98,89.4c-2.04,3.26-2.04,7.4,0,10.66l55.98,89.4c4.19,6.69-.62,15.38-8.51,15.38h-56.3c-3.69,0-7.09-2.03-8.84-5.28l-19.38-35.98c-3.79-7.04-13.89-7.04-17.69,0l-19.38,35.98c-1.75,3.25-5.15,5.28-8.84,5.28Z"/>
  <path class="cls-1" d="M242.48,111.95c0-1.39.86-2.62,2.16-3.11,15.45-5.79,39.29-10.96,60.41-10.96,62.14,0,95.34,30.15,95.34,96.13v125.15c0,1.83-1.48,3.32-3.32,3.32h-62.74c-1.83,0-3.32-1.48-3.32-3.32v-1.77c0-2.81-3.24-4.31-5.43-2.55-9.8,7.87-22.77,12.44-38.41,12.44-47.67,0-68.52-34.96-68.52-70.79,0-38.45,26.81-69.91,69.8-69.91,13.59,0,27.18,3.25,37.76,8.64,2.2,1.12,4.8-.49,4.8-2.96h0c0-22.28-13.62-31.46-34.47-31.46-16.48,0-34.34,4.96-49.23,12.65-2.2,1.14-4.82-.47-4.82-2.95v-58.55ZM308.45,276.15c12.77,0,21.71-8.74,21.71-19.66s-8.94-19.66-21.71-19.66-21.71,8.74-21.71,19.66,9.36,19.66,21.71,19.66Z"/>
  <path class="cls-1" d="M511.04,108.81c0,5.71,6.81,8.73,10.99,4.84,10.3-9.57,23.78-15.78,41.36-15.78,44.26,0,73.21,34.52,73.21,80.4v137.63c0,3.63-2.94,6.56-6.56,6.56h-56.25c-3.63,0-6.56-2.94-6.56-6.56v-116.66c0-19.66-11.07-31.9-28.09-31.9s-27.24,10.49-28.09,29.28v119.28c0,3.63-2.94,6.56-6.56,6.56h-56.25c-3.63,0-6.56-2.94-6.56-6.56V108.81c0-3.63,2.94-6.56,6.56-6.56h56.25c3.63,0,6.56,2.94,6.56,6.56h0Z"/>
  <path class="cls-1" d="M712.78,0c22.98,0,39.58,18.35,39.58,40.64s-16.6,40.64-39.58,40.64-39.58-17.48-39.58-40.64S690.23,0,712.78,0ZM747.68,322.47h-69.38V102.25h69.38v220.22Z"/>
  <path class="cls-1" d="M860.47,108.87c0,5.75,6.85,8.79,11.08,4.89,10.29-9.49,23.74-15.88,41.27-15.88,25.14,0,45.78,10.22,58.86,28.37,2.68,3.72,8.17,3.69,10.83-.05,11.38-16.02,29.54-28.32,56.29-28.32,40.86,0,73.21,34.52,73.21,80.4v137.57c0,3.66-2.97,6.62-6.62,6.62h-56.13c-3.66,0-6.62-2.97-6.62-6.62v-116.16c0-20.1-10.64-32.33-27.67-32.33s-28.94,12.23-28.94,32.33v116.16c0,3.66-2.97,6.62-6.62,6.62h-56.13c-3.66,0-6.62-2.97-6.62-6.62v-116.16c0-20.1-10.64-32.33-27.24-32.33s-28.09,10.92-28.94,29.28v119.22c0,3.66-2.97,6.62-6.62,6.62h-56.13c-3.66,0-6.62-2.97-6.62-6.62V108.87c0-3.66,2.97-6.62,6.62-6.62h56.13c3.66,0,6.62,2.97,6.62,6.62h0Z"/>
  <path class="cls-1" d="M1219.02,233.77c-4.06,0-6.63,4.34-4.7,7.91,7.49,13.91,23.61,21.8,44.95,21.8s44.12-4.38,63-13.45c3.55-1.7,7.65.89,7.65,4.82v54.59c0,2.11-1.23,4.03-3.16,4.89-19.3,8.63-45.23,12.94-73.45,12.94-64.27,0-111.51-45.44-111.51-114.92,0-64.67,45.12-114.48,107.25-114.48s98.74,48.06,98.74,103.12c0,9.16-1.2,20.47-2.84,28.52-.51,2.48-2.7,4.25-5.24,4.25h-120.7ZM1219.07,180.9h56.01c3.78,0,6.42-3.84,4.98-7.33-4.3-10.38-15.72-17.14-31.42-17.14s-27.54,6.83-33.92,16c-2.48,3.57,0,8.46,4.35,8.46Z"/>
</svg>