<?xml version="1.0" encoding="UTF-8"?>
<svg id="_レイヤー_1" data-name="レイヤー 1" xmlns="http://www.w3.org/2000/svg" viewBox="0 0 1228.95 320.78">
  <defs>
    <style>
      .cls-1 {
        fill: #ff53ba;
      }
    </style>
  </defs>
  <path class="cls-1" d="M71.83,314.01H6.1c-4.8,0-7.71-5.3-5.14-9.35l61.81-97.5c1.26-1.99,1.26-4.53,0-6.52L.96,103.14c-2.57-4.05.34-9.35,5.14-9.35h65.75c2.23,0,4.29,1.22,5.35,3.18l23.99,44.2c2.3,4.25,8.4,4.25,10.7,0l23.99-44.2c1.07-1.96,3.12-3.18,5.35-3.18h65.82c4.79,0,7.7,5.27,5.16,9.32l-61.09,97.56c-1.24,1.98-1.24,4.49,0,6.46l61.09,97.56c2.54,4.06-.38,9.32-5.16,9.32h-65.81c-2.24,0-4.3-1.23-5.36-3.2l-23.98-44.52c-2.3-4.27-8.42-4.27-10.72,0l-23.98,44.52c-1.06,1.97-3.12,3.2-5.36,3.2Z"/>
  <path class="cls-1" d="M226.23,103.27c0-1.39.86-2.62,2.16-3.11,15.45-5.79,39.29-10.96,60.41-10.96,62.14,0,95.34,30.15,95.34,96.13v125.15c0,1.83-1.48,3.32-3.32,3.32h-62.74c-1.83,0-3.32-1.48-3.32-3.32v-1.77c0-2.81-3.24-4.31-5.43-2.55-9.8,7.87-22.77,12.44-38.41,12.44-47.67,0-68.52-34.96-68.52-70.79,0-38.45,26.81-69.91,69.8-69.91,13.59,0,27.18,3.25,37.76,8.64,2.2,1.12,4.8-.49,4.8-2.96h0c0-22.28-13.62-31.46-34.47-31.46-16.48,0-34.34,4.96-49.23,12.65-2.2,1.14-4.82-.47-4.82-2.95v-58.55ZM292.2,267.48c12.77,0,21.71-8.74,21.71-19.66s-8.94-19.66-21.71-19.66-21.71,8.74-21.71,19.66,9.36,19.66,21.71,19.66Z"/>
  <path class="cls-1" d="M466.22,102.54c0,5.71,6.81,8.73,10.99,4.84,10.3-9.57,23.78-15.78,41.36-15.78,44.26,0,73.21,34.52,73.21,80.4v137.63c0,3.63-2.94,6.56-6.56,6.56h-56.25c-3.63,0-6.56-2.94-6.56-6.56v-116.66c0-19.66-11.07-31.9-28.09-31.9s-27.24,10.49-28.09,29.28v119.28c0,3.63-2.94,6.56-6.56,6.56h-56.25c-3.63,0-6.56-2.94-6.56-6.56V102.54c0-3.63,2.94-6.56,6.56-6.56h56.25c3.63,0,6.56,2.94,6.56,6.56h0Z"/>
  <path class="cls-1" d="M640.18,0c22.98,0,39.58,18.35,39.58,40.64s-16.6,40.64-39.58,40.64-39.58-17.48-39.58-40.64S617.62,0,640.18,0ZM674.86,316.2h-69.38V95.97h69.38v220.22Z"/>
  <path class="cls-1" d="M759.81,104.78c0,5.75,6.85,8.79,11.08,4.89,10.29-9.49,23.74-15.88,41.27-15.88,25.14,0,45.78,10.22,58.86,28.37,2.68,3.72,8.17,3.69,10.83-.05,11.38-16.02,29.54-28.32,56.29-28.32,40.86,0,73.21,34.52,73.21,80.4v137.57c0,3.66-2.97,6.62-6.62,6.62h-56.13c-3.66,0-6.62-2.97-6.62-6.62v-116.16c0-20.1-10.64-32.33-27.67-32.33s-28.94,12.23-28.94,32.33v116.16c0,3.66-2.97,6.62-6.62,6.62h-56.13c-3.66,0-6.62-2.97-6.62-6.62v-116.16c0-20.1-10.64-32.33-27.24-32.33s-28.09,10.92-28.94,29.28v119.22c0,3.66-2.97,6.62-6.62,6.62h-56.13c-3.66,0-6.62-2.97-6.62-6.62V104.78c0-3.66,2.97-6.62,6.62-6.62h56.13c3.66,0,6.62,2.97,6.62,6.62h0Z"/>
  <path class="cls-1" d="M1100.17,227.28c-4.06,0-6.63,4.34-4.7,7.91,7.49,13.91,23.61,21.8,44.95,21.8s44.12-4.38,63-13.45c3.55-1.7,7.65.89,7.65,4.82v54.59c0,2.11-1.23,4.03-3.16,4.89-19.3,8.63-45.23,12.94-73.45,12.94-64.27,0-111.51-45.44-111.51-114.92,0-64.67,45.12-114.48,107.25-114.48s98.74,48.06,98.74,103.12c0,9.16-1.2,20.47-2.84,28.52-.51,2.48-2.7,4.25-5.24,4.25h-120.7ZM1100.22,174.4h56.01c3.78,0,6.42-3.84,4.98-7.33-4.3-10.38-15.72-17.14-31.42-17.14s-27.54,6.83-33.92,16c-2.48,3.57,0,8.46,4.35,8.46Z"/>
</svg>