<svg xmlns="http://www.w3.org/2000/svg" width="240" height="64" viewBox="0 0 240 64">
  <defs>
    <linearGradient id="xanime-logo-gradient" x1="0%" y1="50%" x2="100%" y2="50%">
      <stop offset="0%" stop-color="#ff4dba" />
      <stop offset="100%" stop-color="#ff6fd3" />
    </linearGradient>
  </defs>
  <g fill="url(#xanime-logo-gradient)" fill-rule="evenodd">
    <path d="M8.6 50.5c-5.5 0-8.6-3.6-8.6-10.4V24.1C0 17 3.2 13.2 8.6 13.2c3.6 0 6.1 1.7 7.8 4.6L26.6 0h12L23.7 22.4l15.4 27.7h-12L16.3 29.5l.1 10.9c0 7.1-3.2 10.1-7.8 10.1zM60.8 50.5c-10.5 0-17.3-7.2-17.3-18.4 0-11.1 6.8-18.4 17.3-18.4 10.4 0 17.2 7.2 17.2 18.4 0 11.2-6.8 18.4-17.2 18.4zm0-9.1c4 0 6.7-3.6 6.7-9.3 0-5.6-2.7-9.3-6.7-9.3-4 0-6.8 3.7-6.8 9.3s2.8 9.3 6.8 9.3zm40.8 9.1c-9.9 0-16.4-7.3-16.4-18.4 0-11.2 6.5-18.4 16.4-18.4 7.3 0 12.6 3.6 14.8 9.4h-10.1c-.9-2.1-2.5-3.1-4.7-3.1-4 0-6.7 3.7-6.7 9.3 0 5.7 2.7 9.3 6.7 9.3 2.2 0 3.8-1 4.7-3.1h10.1c-2.2 5.8-7.5 9.4-14.8 9.4zM126 50.1V13.7h10.6v13.9h12.4V13.7h10.6v36.4h-10.6V36.6h-12.4v13.5zM175.6 50.5c-10.4 0-17.2-7.2-17.2-18.4 0-11.1 6.8-18.4 17.2-18.4 10.5 0 17.3 7.2 17.3 18.4 0 11.2-6.8 18.4-17.3 18.4zm0-9.1c4 0 6.8-3.6 6.8-9.3 0-5.6-2.8-9.3-6.8-9.3-4 0-6.7 3.7-6.7 9.3s2.7 9.3 6.7 9.3zM228.5 50.5c-8.7 0-14.6-4.8-16.1-12.7h10.9c.6 2.3 2.4 3.6 5.1 3.6 3.4 0 5.4-1.9 5.4-5.2 0-3.6-2.5-5.3-6.6-5.3h-4.7v-8h4.4c3.5 0 5.8-1.5 5.8-4.5 0-2.9-2.1-4.5-5.3-4.5-2.7 0-4.4 1.3-5.1 3.4h-10.8c1.4-7.6 7.3-12.3 15.8-12.3 9.7 0 15.7 4.7 15.7 12 0 4.6-2.4 7.9-6.4 9.7 4.8 1.6 7.5 5.2 7.5 10.4 0 8.1-6.3 13.4-15.6 13.4z"/>
  </g>
</svg>
