<?xml version="1.0" encoding="UTF-8"?>
<svg id="_レイヤー_1" data-name="レイヤー 1" xmlns="http://www.w3.org/2000/svg" xmlns:xlink="http://www.w3.org/1999/xlink" viewBox="0 0 320 320">
  <defs>
    <style>
      .cls-1 {
        fill: #ff53ba;
      }

      .cls-2 {
        fill: url(#_名称未設定グラデーション);
      }
    </style>
    <linearGradient id="_名称未設定グラデーション" data-name="名称未設定グラデーション" x1="-796.5" y1="699.82" x2="-795.5" y2="698.82" gradientTransform="translate(254881 223941) scale(320 -320)" gradientUnits="userSpaceOnUse">
      <stop offset="0" stop-color="#ffe6f5"/>
      <stop offset="1" stop-color="#ffc2e5"/>
    </linearGradient>
  </defs>
  <rect class="cls-2" width="320" height="320" rx="80" ry="80"/>
  <path class="cls-1" d="M124.56,272.31H57.51c-4.9,0-7.86-5.41-5.24-9.54l63.05-99.45c1.29-2.03,1.29-4.62,0-6.65L52.27,57.22c-2.62-4.13.35-9.54,5.24-9.54h67.06c2.27,0,4.38,1.24,5.46,3.24l24.47,45.08c2.35,4.33,8.57,4.33,10.91,0l24.47-45.08c1.09-2,3.18-3.24,5.46-3.24h67.14c4.89,0,7.85,5.38,5.26,9.51l-62.31,99.51c-1.26,2.02-1.26,4.58,0,6.59l62.31,99.51c2.59,4.14-.39,9.51-5.26,9.51h-67.13c-2.28,0-4.39-1.25-5.47-3.26l-24.46-45.41c-2.35-4.36-8.59-4.36-10.93,0l-24.46,45.41c-1.08,2.01-3.18,3.26-5.47,3.26h-.01Z"/>
</svg>