<?xml version="1.0" encoding="UTF-8"?>
<svg xmlns="http://www.w3.org/2000/svg" viewBox="0 0 320 320">
  <defs>
    <linearGradient id="iconGradient" x1="0%" y1="0%" x2="100%" y2="100%">
      <stop offset="0%" stop-color="#ffe6f5"/>
      <stop offset="100%" stop-color="#ffc2e5"/>
    </linearGradient>
  </defs>
  <rect width="320" height="320" rx="80" fill="url(#iconGradient)"/>
  <path fill="#ff53ba" d="M71.83,314.01H6.1c-4.8,0-7.71-5.3-5.14-9.35l61.81-97.5c1.26-1.99,1.26-4.53,0-6.52L.96,103.14c-2.57-4.05.34-9.35,5.14-9.35h65.75c2.23,0,4.29,1.22,5.35,3.18l23.99,44.2c2.3,4.25,8.4,4.25,10.7,0l23.99-44.2c1.07-1.96,3.12-3.18,5.35-3.18h65.82c4.79,0,7.7,5.27,5.16,9.32l-61.09,97.56c-1.24,1.98-1.24,4.49,0,6.46l61.09,97.56c2.54,4.06-.38,9.32-5.16,9.32h-65.81c-2.24,0-4.3-1.23-5.36-3.2l-23.98-44.52c-2.3-4.27-8.42-4.27-10.72,0l-23.98,44.52c-1.06,1.97-3.12,3.2-5.36,3.2Z" transform="translate(84 3) scale(1.02)"/>
</svg>
